<svg width="800" height="314" viewBox="0 0 800 314" fill="none" xmlns="http://www.w3.org/2000/svg">
<g filter="url(#filter0_d_1547_2157)">
<path d="M327.6 196C322.333 196 317.467 195.133 313 193.4C308.6 191.6 304.767 189.1 301.5 185.9C298.233 182.633 295.7 178.8 293.9 174.4C292.167 169.933 291.3 165.033 291.3 159.7C291.3 154.5 292.233 149.7 294.1 145.3C295.967 140.9 298.533 137.1 301.8 133.9C305.133 130.633 309.033 128.1 313.5 126.3C318.033 124.5 322.967 123.6 328.3 123.6C331.633 123.6 334.9 124.033 338.1 124.9C341.3 125.767 344.267 127.067 347 128.8C349.8 130.467 352.2 132.467 354.2 134.8L343.8 146.7C342.4 145.233 340.9 143.967 339.3 142.9C337.767 141.767 336.067 140.9 334.2 140.3C332.333 139.7 330.333 139.4 328.2 139.4C325.533 139.4 323 139.9 320.6 140.9C318.267 141.833 316.2 143.2 314.4 145C312.667 146.733 311.3 148.867 310.3 151.4C309.3 153.933 308.8 156.767 308.8 159.9C308.8 162.967 309.3 165.767 310.3 168.3C311.3 170.767 312.7 172.9 314.5 174.7C316.3 176.5 318.467 177.867 321 178.8C323.6 179.733 326.467 180.2 329.6 180.2C331.733 180.2 333.767 179.9 335.7 179.3C337.633 178.7 339.4 177.9 341 176.9C342.667 175.833 344.133 174.633 345.4 173.3L353.6 186.3C351.933 188.167 349.7 189.833 346.9 191.3C344.167 192.767 341.1 193.933 337.7 194.8C334.367 195.6 331 196 327.6 196ZM388.834 196C382.967 196 377.867 194.833 373.534 192.5C369.2 190.1 365.834 186.867 363.434 182.8C361.034 178.667 359.834 173.967 359.834 168.7C359.834 164.633 360.5 160.9 361.834 157.5C363.167 154.1 365.034 151.167 367.434 148.7C369.834 146.167 372.667 144.233 375.934 142.9C379.267 141.5 382.9 140.8 386.834 140.8C390.567 140.8 393.967 141.467 397.034 142.8C400.167 144.133 402.867 146 405.134 148.4C407.4 150.8 409.134 153.633 410.334 156.9C411.534 160.167 412.067 163.733 411.934 167.6L411.834 171.9H369.534L367.234 162.9H398.834L397.134 164.8V162.8C397 161.133 396.467 159.667 395.534 158.4C394.667 157.067 393.5 156.033 392.034 155.3C390.567 154.567 388.9 154.2 387.034 154.2C384.434 154.2 382.2 154.733 380.334 155.8C378.534 156.8 377.167 158.3 376.234 160.3C375.3 162.233 374.834 164.633 374.834 167.5C374.834 170.433 375.434 173 376.634 175.2C377.9 177.333 379.7 179 382.034 180.2C384.434 181.4 387.267 182 390.534 182C392.8 182 394.8 181.667 396.534 181C398.334 180.333 400.267 179.2 402.334 177.6L409.834 188.2C407.767 190 405.567 191.467 403.234 192.6C400.9 193.733 398.5 194.567 396.034 195.1C393.634 195.7 391.234 196 388.834 196ZM422.227 195V121H438.227V195H422.227ZM476.822 196C470.955 196 465.855 194.833 461.522 192.5C457.189 190.1 453.822 186.867 451.422 182.8C449.022 178.667 447.822 173.967 447.822 168.7C447.822 164.633 448.489 160.9 449.822 157.5C451.155 154.1 453.022 151.167 455.422 148.7C457.822 146.167 460.655 144.233 463.922 142.9C467.255 141.5 470.889 140.8 474.822 140.8C478.555 140.8 481.955 141.467 485.022 142.8C488.155 144.133 490.855 146 493.122 148.4C495.389 150.8 497.122 153.633 498.322 156.9C499.522 160.167 500.055 163.733 499.922 167.6L499.822 171.9H457.522L455.222 162.9H486.822L485.122 164.8V162.8C484.989 161.133 484.455 159.667 483.522 158.4C482.655 157.067 481.489 156.033 480.022 155.3C478.555 154.567 476.889 154.2 475.022 154.2C472.422 154.2 470.189 154.733 468.322 155.8C466.522 156.8 465.155 158.3 464.222 160.3C463.289 162.233 462.822 164.633 462.822 167.5C462.822 170.433 463.422 173 464.622 175.2C465.889 177.333 467.689 179 470.022 180.2C472.422 181.4 475.255 182 478.522 182C480.789 182 482.789 181.667 484.522 181C486.322 180.333 488.255 179.2 490.322 177.6L497.822 188.2C495.755 190 493.555 191.467 491.222 192.6C488.889 193.733 486.489 194.567 484.022 195.1C481.622 195.7 479.222 196 476.822 196ZM514.516 195V128.5H530.516V195H514.516ZM505.116 155.9V141.9H540.816V155.9H505.116ZM549.959 195V141.9H565.159L565.859 159.2L562.859 155.9C563.659 153.033 564.959 150.467 566.759 148.2C568.626 145.933 570.793 144.133 573.259 142.8C575.726 141.467 578.359 140.8 581.159 140.8C582.359 140.8 583.459 140.9 584.459 141.1C585.526 141.3 586.493 141.533 587.359 141.8L582.959 159.5C582.226 159.033 581.226 158.667 579.959 158.4C578.759 158.067 577.493 157.9 576.159 157.9C574.693 157.9 573.326 158.167 572.059 158.7C570.793 159.167 569.726 159.867 568.859 160.8C567.993 161.733 567.293 162.833 566.759 164.1C566.293 165.367 566.059 166.8 566.059 168.4V195H549.959ZM596.367 195V141.9H612.367V195H596.367ZM604.367 131.4C601.367 131.4 599.001 130.7 597.267 129.3C595.601 127.833 594.767 125.767 594.767 123.1C594.767 120.7 595.634 118.733 597.367 117.2C599.101 115.667 601.434 114.9 604.367 114.9C607.367 114.9 609.701 115.633 611.367 117.1C613.034 118.5 613.867 120.5 613.867 123.1C613.867 125.567 613.001 127.567 611.267 129.1C609.601 130.633 607.301 131.4 604.367 131.4ZM627.401 217V141.9H642.601L643.201 153.8L640.201 152.9C640.667 150.7 641.801 148.7 643.601 146.9C645.401 145.1 647.667 143.667 650.401 142.6C653.201 141.467 656.134 140.9 659.201 140.9C663.734 140.9 667.767 142.1 671.301 144.5C674.834 146.833 677.601 150.067 679.601 154.2C681.667 158.267 682.701 163 682.701 168.4C682.701 173.733 681.667 178.467 679.601 182.6C677.601 186.733 674.801 190 671.201 192.4C667.667 194.733 663.601 195.9 659.001 195.9C656.001 195.9 653.134 195.333 650.401 194.2C647.667 193.067 645.367 191.533 643.501 189.6C641.634 187.667 640.401 185.567 639.801 183.3L643.501 181.9V217H627.401ZM655.101 182.4C657.501 182.4 659.601 181.833 661.401 180.7C663.201 179.5 664.601 177.867 665.601 175.8C666.601 173.733 667.101 171.267 667.101 168.4C667.101 165.6 666.601 163.167 665.601 161.1C664.601 158.967 663.201 157.333 661.401 156.2C659.667 155 657.567 154.4 655.101 154.4C652.634 154.4 650.501 154.967 648.701 156.1C646.901 157.233 645.501 158.867 644.501 161C643.501 163.133 643.001 165.6 643.001 168.4C643.001 171.267 643.501 173.733 644.501 175.8C645.501 177.867 646.901 179.5 648.701 180.7C650.501 181.833 652.634 182.4 655.101 182.4Z" fill="#D1082C"/>
<rect x="112" y="233" width="152" height="152" rx="50" transform="rotate(-90 112 233)" fill="#D1082C"/>
<path d="M146.646 170.904C127.46 146.384 144.96 110.567 176.129 110.567C207.297 110.567 224.796 146.384 205.608 170.904L204.212 172.686L181.116 201.061C178.544 204.223 173.707 204.223 171.135 201.061L148.042 172.686L146.646 170.904Z" stroke="#FFF7E3" stroke-width="11" stroke-miterlimit="10"/>
<path d="M211.735 167.619C226.57 167.619 238.596 155.5 238.596 140.551C238.596 125.601 226.57 113.482 211.735 113.482C196.901 113.482 184.875 125.601 184.875 140.551C184.875 155.5 196.901 167.619 211.735 167.619Z" stroke="#FFF7E3" stroke-width="11" stroke-miterlimit="10"/>
</g>
<defs>
<filter id="filter0_d_1547_2157" x="-4" y="0" width="808" height="321.997" filterUnits="userSpaceOnUse" color-interpolation-filters="sRGB">
<feFlood flood-opacity="0" result="BackgroundImageFix"/>
<feColorMatrix in="SourceAlpha" type="matrix" values="0 0 0 0 0 0 0 0 0 0 0 0 0 0 0 0 0 0 127 0" result="hardAlpha"/>
<feOffset dy="4"/>
<feGaussianBlur stdDeviation="2"/>
<feComposite in2="hardAlpha" operator="out"/>
<feColorMatrix type="matrix" values="0 0 0 0 0 0 0 0 0 0 0 0 0 0 0 0 0 0 0.25 0"/>
<feBlend mode="normal" in2="BackgroundImageFix" result="effect1_dropShadow_1547_2157"/>
<feBlend mode="normal" in="SourceGraphic" in2="effect1_dropShadow_1547_2157" result="shape"/>
</filter>
</defs>
</svg>
